<?xml version="1.0" encoding="UTF-8"?>
<svg id="Layer_1" data-name="Layer 1" xmlns="http://www.w3.org/2000/svg" version="1.1" viewBox="0 0 48 48">
  <defs>
    <style>
      .cls-1 {
        isolation: isolate;
      }

      .cls-1, .cls-2 {
        fill: #e8eaed;
        stroke-width: 0px;
      }
    </style>
  </defs>
  <path class="cls-1" d="M38.3,24.1c-.5-1.5-1.3-2.9-2.3-4.2-.2-.3-.4-.6-.7-.8l-.2-.2c-.2-.2-.4-.4-.6-.6h0c-.9-.9-1.8-1.7-2.8-2.3-.6-.4-1.3-.7-1.9-1-.2,0-.3,0-.5-.2-.2,0-.5-.2-.7-.3h-.3c-1.4-.4-2.8-.6-4.3-.6h-.4c-1.3,0-2.6.3-3.9.6-1.2.4-2.4.9-3.5,1.5-1,.6-2,1.3-2.8,2.2-.2.2-.4.4-.6.7l-.2.2c-.2.3-.5.5-.7.8-1,1.3-1.7,2.7-2.3,4.2-.5,1.5-.8,3.2-.8,4.9s.3,3.4.8,4.9,1.3,2.9,2.3,4.2c1,1.4,2.3,2.5,3.7,3.5,1.2.8,2.5,1.4,3.9,1.8,1.4.4,2.9.7,4.4.7s3-.2,4.4-.7c1.4-.4,2.7-1.1,3.9-1.8.3-.2.7-.5,1-.7,1-.8,1.9-1.7,2.7-2.7,1-1.3,1.7-2.7,2.3-4.2.5-1.5.8-3.2.8-4.9s-.3-3.4-.8-4.9h0ZM32.4,37.4c-2.3,2.3-5.1,3.5-8.5,3.5s-6.1-1.2-8.4-3.5c-2.3-2.3-3.5-5.1-3.5-8.5s1.2-6.1,3.5-8.4c2.3-2.3,5.1-3.5,8.5-3.5s6.1,1.2,8.4,3.5,3.5,5.1,3.5,8.5-1.2,6.1-3.5,8.4Z"/>
  <path class="cls-2" d="M15.5,20.5c.5-.5.9-.9,1.4-1.2l-6.2-12.3h7.4l5,10h.9c.9,0,1.8,0,2.6.3l-1-2,4.1-8.3h7.4l-6.2,12.2c.5.4,1,.8,1.5,1.3s.6.7.9,1c.3-.5.5-.9.7-1.4l8-16.1h-14l-4,8-4-8H6c2.9,5.8,5.8,11.6,8.7,17.4.3-.3.5-.6.8-.9Z"/>
  <circle class="cls-2" cx="24" cy="26.7" r="2.4"/>
  <path class="cls-2" d="M25.6,29.7h-3.3c-1.1,0-2.1.9-2.1,2.1v3.3c1.1.4,2.4.7,3.7.7s2.6-.3,3.7-.7v-3.3c0-1.1-.9-2.1-2.1-2.1h0Z"/>
  <circle class="cls-2" cx="17.9" cy="25.4" r="2.4"/>
  <circle class="cls-2" cx="29.8" cy="25.3" r="2.4"/>
  <path class="cls-2" d="M18.7,31.8c0-1.4.8-2.6,2-3.2-.3-.2-.7-.4-1.1-.4h-3.2c-1.1,0-2,.9-2,2v3.2c1.1.4,2.3.7,3.6.7h.7v-2.3Z"/>
  <path class="cls-2" d="M31.4,28.2h-3.2c-.5,0-.8.1-1.1.4,1,.5,1.8,1.5,2,2.7,0,.2,0,.4,0,.6v2.3h.7c1.3,0,2.5-.2,3.6-.7v-3.2c0-1.1-.9-2-2-2Z"/>
</svg>