<?xml version="1.0" encoding="UTF-8"?>
<svg id="Layer_1" data-name="Layer 1" xmlns="http://www.w3.org/2000/svg" version="1.1" viewBox="0 0 24 24">
  <defs>
    <style>
      .cls-1 {
        fill: #e8eaed;
        stroke-width: 0px;
      }
    </style>
  </defs>
  <path class="cls-1" d="M9,7.2c.2-.2.3-.4.3-.6s0-.5-.3-.6c-.2-.2-.4-.3-.6-.3s-.5,0-.6.3c-.2.2-.3.4-.3.6s0,.5.3.6c.2.2.4.3.6.3s.5,0,.6-.3Z"/>
  <path class="cls-1" d="M22,14.7l-10-6.4v-1.8c0-.4,0-1-.3-1.6-.2-.4-.4-.7-.7-1s-.1,0-.3-.3c-.5-.4-1.3-.8-2.3-.8s-.8,0-1.4.3c-2,.8-3.9,1.7-5.9,2.5l3.6,1.4h0v3.2c0,1.7.5,3.1,1.5,4.4,1,1.3,2.3,2.2,3.9,2.6l-1.3,3.2,1.7.7,1.5-3.6h1.8v3.6h1.8v-3.6h4.6l.9,1.8h1.8s-.9-4.6-.9-4.6ZM12,15.6c-1.5,0-2.8-.5-3.9-1.6s-1.6-2.4-1.6-3.9v-3.6c0-.5.2-.9.5-1.3s.8-.5,1.3-.5.9.2,1.3.5.5.8.5,1.3v2.8l5.6,3.6h-3.8c-.5,0-.9-.2-1.3-.5s-.5-.8-.5-1.3h-1.8c0,1,.4,1.9,1.1,2.6s1.6,1.1,2.6,1.1h6.6l1.4.9h-8Z"/>
</svg>