<?xml version="1.0" encoding="UTF-8"?>
<svg id="Layer_1" data-name="Layer 1" xmlns="http://www.w3.org/2000/svg" version="1.1" viewBox="0 0 24 24">
  <defs>
    <style>
      .cls-1 {
        fill: #e8eaed;
        stroke-width: 0px;
      }
    </style>
  </defs>
  <path class="cls-1" d="M21.1,16.3h0c-.1-.6-.2-1.1-.3-1.6-.1-.6-.3-1.3-.4-1.9-.2-.9-.4-1.8-.6-2.8.4-1,.2-2.1,0-2.4,0,0,0,0,0,0,0,0,.2-.2.2-.3.4-.7.2-1.5.2-1.7-.2-.6-.5-1-.8-1.2-.2-.2-.6-.6-1.3-.8-.3,0-1.2-.2-1.8.4,0,0,0,0-.1.1,0,0,0,0,0,0-.4,0-1.4-.2-2.3.2-.9-.2-1.7-.4-2.6-.6-.6-.2-1.2-.3-1.9-.4-.5-.1-1-.2-1.5-.3h-.1c-1-.3-1.6-.4-2.4-.2-1.2.3-2.1.9-2.5,1.8-.5,1.2-.1,2.2.4,3.4.2.4.4,1,.9,1.6-.3.2-.5.6-.7,1-.5,1.2,0,2.3.2,2.7.4.6.9.9,1.6,1.3.7.4,1.3.8,2.2.9-.1.3,0,.7.3,1,.2.2.4.3.7.3s.1,0,.2,0c.2.8.5,1.4.9,2.1.4.7.7,1.2,1.3,1.6.3.2.9.5,1.6.5s.7,0,1.1-.2c.4-.2.7-.4,1-.7.7.4,1.3.7,1.6.9.8.3,1.6.7,2.3.7s.7,0,1.1-.2c1.3-.6,1.7-1.9,1.8-2.5.2-.8,0-1.4-.2-2.4ZM15.7,6c.2,0,.3,0,.4.1.1.3.4,1,1.2,1.4.1,0,.3.1.4.2,0,.1.1.2.1.4,0,0,.2.7,0,1.2,0,0,0,0,0,0-.2,0-.9,0-1.5-.4-.9-.5-1.2-1.3-1.3-1.7-.2-.5-.3-.8-.3-1,0,0,.2-.1.2-.2.2,0,.5,0,.7,0ZM4.7,5.3c.2-.4.7-.6,1.1-.7.3,0,.6,0,1.5.2h.1c.5.2,1,.3,1.5.4.6.1,1.2.3,1.8.4.6.2,1.3.3,1.9.4,0,.7.3,1.5.4,1.8,0,0,0,.2.2.4-1.2.5-2.3,1-3.4,1.5-.5.2-1,.4-1.7.3-.6,0-1-.4-1.3-.7-1-.8-1.5-1.8-1.7-2.3-.4-1-.6-1.5-.4-1.8ZM5.4,12.1c0-.1-.3-.5-.1-.9,0-.1.1-.2.2-.3,0,0,0,0,.1,0,.4.3,1.1.9,2.2,1,.2,0,.4,0,.7,0,.9,0,1.6-.3,2.1-.5.2,0,.3-.1.5-.2-.2.2-.4.5-.7.7-.8.8-1.1,1-1.4,1.1-.2,0-.4.2-.7.2-.6,0-1.1-.2-1.9-.7-.6-.4-.8-.5-.9-.6ZM12.7,18.7c-.4.2-.7,0-.9-.1-.2,0-.3-.3-.6-.9-.5-.8-.8-1.3-.7-1.9,0-.3.1-.5.2-.7.1-.3.3-.6.5-.9l1.4-1.4c0,.2-.2.5-.3.7-.2.6-.6,1.5-.4,2.7.2,1.1.7,1.8,1,2.2,0,0,0,0,0,.1,0,0-.2.1-.3.2ZM19.4,18.2c0,.4-.3.9-.7,1.1-.3.2-.9,0-1.8-.4-.6-.2-1.6-.7-2.3-1.7-.3-.4-.6-.8-.7-1.3-.1-.6.1-1.2.3-1.7.4-1.1.9-2.2,1.4-3.4.6.3,1.3.5,2,.5s.2,0,.3,0c.1.7.3,1.3.5,1.9.2.6.3,1.2.4,1.8.1.5.2,1,.4,1.5h0c.2,1.1.3,1.3.2,1.6Z"/>
</svg>