<?xml version="1.0" encoding="UTF-8" standalone="no"?>
<!DOCTYPE svg PUBLIC "-//W3C//DTD SVG 1.1//EN" "http://www.w3.org/Graphics/SVG/1.1/DTD/svg11.dtd">
<svg width="100%" height="100%" viewBox="0 0 24 24" version="1.1" xmlns="http://www.w3.org/2000/svg" xmlns:xlink="http://www.w3.org/1999/xlink" xml:space="preserve" xmlns:serif="http://www.serif.com/" style="fill-rule:evenodd;clip-rule:evenodd;stroke-linejoin:round;stroke-miterlimit:2;">
    <path d="M10,2L14,2L14,7L10,7L10,2ZM12,7L13.5,13L10.5,13L12,7ZM4,16L20,16L20,18L4,18L4,16ZM3,19L21,19L21,21L3,21L3,19ZM4,6L7,6L7,8L4,8L4,6ZM17,6L20,6L20,8L17,8L17,6Z" style="fill:rgb(232,234,237);fill-rule:nonzero;"/>
</svg>
